<?xml version="1.0" encoding="UTF-8" standalone="no"?>
<svg
   xmlns:dc="http://purl.org/dc/elements/1.1/"
   xmlns:cc="http://creativecommons.org/ns#"
   xmlns:rdf="http://www.w3.org/1999/02/22-rdf-syntax-ns#"
   xmlns:svg="http://www.w3.org/2000/svg"
   xmlns="http://www.w3.org/2000/svg"
   xmlns:xlink="http://www.w3.org/1999/xlink"
   xmlns:sodipodi="http://sodipodi.sourceforge.net/DTD/sodipodi-0.dtd"
   xmlns:inkscape="http://www.inkscape.org/namespaces/inkscape"
   viewBox="0 0 2048 3120"
   version="1.1"
   id="svg1520"
   sodipodi:docname="neobot_legs.svg"
   inkscape:export-filename="..\png\neobot_walk4.png"
   inkscape:export-xdpi="12"
   inkscape:export-ydpi="12"
   inkscape:version="1.0.2-2 (e86c870879, 2021-01-15)">
  <metadata
     id="metadata1524">
    <rdf:RDF>
      <cc:Work
         rdf:about="">
        <dc:format>image/svg+xml</dc:format>
        <dc:type
           rdf:resource="http://purl.org/dc/dcmitype/StillImage" />
        <dc:title></dc:title>
      </cc:Work>
    </rdf:RDF>
  </metadata>
  <sodipodi:namedview
     pagecolor="#ffffff"
     bordercolor="#666666"
     borderopacity="1"
     objecttolerance="10"
     gridtolerance="10"
     guidetolerance="10"
     inkscape:pageopacity="0"
     inkscape:pageshadow="2"
     inkscape:window-width="1920"
     inkscape:window-height="1001"
     id="namedview1522"
     showgrid="false"
     inkscape:zoom="0.24326923"
     inkscape:cx="1024"
     inkscape:cy="1560"
     inkscape:window-x="-9"
     inkscape:window-y="-9"
     inkscape:window-maximized="1"
     inkscape:current-layer="svg1520" />
  <defs
     id="defs1490">
    <filter
       id="eye_glow"
       width="3"
       height="3"
       x="-1"
       y="-1">
      <feGaussianBlur
         in="SourceGraphic"
         result="blur1"
         stdDeviation="50"
         id="feGaussianBlur1477" />
      <feGaussianBlur
         in="SourceGraphic"
         result="blur2"
         stdDeviation="25"
         id="feGaussianBlur1479" />
      <feGaussianBlur
         in="SourceGraphic"
         result="blur3"
         stdDeviation="12.5 "
         id="feGaussianBlur1481" />
      <feComposite
         in="SourceGraphic"
         in2="blur1"
         result="comp1"
         id="feComposite1483" />
      <feComposite
         in="comp1"
         in2="blur2"
         result="comp2"
         id="feComposite1485" />
      <feComposite
         in="comp2"
         in2="blur3"
         id="feComposite1487" />
    </filter>
  </defs>
  <g
     id="left_leg"
     paint-order="markers fill stroke">
    <path
       d="M457 1768v710c-8 15-27 15-42 19a300 300 0 0 0-241 200c-46 121-12 276 98 352 79 64 185 79 283 68 113-4 230 15 340-31a332 332 0 0 0 181-340v-978"
       id="path1492" />
    <path
       fill="#cbcbcb"
       d="M933 1772H600v865H464a166 166 0 0 0-170 166c0 95 76 170 170 170h299a166 166 0 0 0 170-181Z"
       id="path1494" />
  </g>
  <g
     id="right_leg"
     paint-order="markers fill stroke">
    <path
       d="M1801 1772h-615v687a276 276 0 0 0-246 125 321 321 0 0 0 15 389c76 87 193 117 302 121 110 7 220 34 329 11a324 324 0 0 0 219-336z"
       id="path1497" />
    <path
       fill="#cbcbcb"
       d="M1658 1772h-329v865l-136-34c-90-19-170 75-170 170 0 91 76 158 170 166l299 34c94 8 170-75 170-170l-4-11z"
       id="path1499" />
  </g>
  <g
     id="neobot">
    <path
       fill="#cbcbcb"
       d="M1068 445c-137-1-272 39-394 99a827 827 0 0 0-376 380 801 801 0 0 0-65 358c1 122 20 251 93 352a501 501 0 0 0 301 206c80 18 163 12 244 14 201 1 401 2 601-1 60-5 120-26 170-60 93-64 139-176 159-283 21-100 13-202 14-304 1-97-13-195-47-287-29-74-64-149-185-264-120-116-163-126-197-143-97-49-208-69-318-67z"
       paint-order="markers stroke fill"
       id="path1502" />
    <path
       d="M741 1978c-138-6-259-42-354-104-56-38-99-78-142-136a724 724 0 0 1-138-452c0-197 43-366 129-507 37-62 84-120 147-182a919 919 0 0 1 600-276 849 849 0 0 1 367 50c2 0 2-5 2-106 0-125 0-129 8-154A159 159 0 0 1 1485 2c12-2 15-2 73-2l70 1a160 160 0 0 1 133 130c3 16 3 35 3 291v262l9 11a802 802 0 0 1 92 162c41 97 65 199 73 318 4 60 4 185 0 247-17 249-98 415-245 498-46 26-101 44-161 51-44 7-22 6-337 7a281885 281885 0 0 0-454 0zm717-126c158-13 263-96 316-250 24-68 37-148 40-248 1-36 1-154-1-182-6-103-21-186-50-258-23-60-71-139-117-195l-10-11V301l-2-6c-3-7-11-15-18-18-6-2-7-2-60-2l-53 1-5 2c-7 4-12 9-16 16l-2 7v134l-1 134-15-9c-51-33-108-62-146-75a781 781 0 0 0-411-20 959 959 0 0 0-303 121 815 815 0 0 0-302 335c-31 61-53 146-61 230-6 57-7 145-3 199 7 88 23 157 50 215a573 573 0 0 0 127 165c75 66 166 105 272 117 32 4 37 4 175 5zm161-1588c7-4 12-11 15-18 2-5 2-7 2-49s0-44-2-49c-3-7-8-14-15-18l-5-2-55-1h-54l-6 3c-7 3-13 9-16 16l-3 6v90l2 6c4 7 9 13 17 16l6 3h109z"
       id="path1504" />
    <path
       fill="#353535"
       d="m661 1206-45-5c-35-5-63-13-89-26-53-27-87-71-98-130-4-19-5-28-5-47 0-74 26-142 77-207 66-83 156-133 270-149a1654 1654 0 0 1 378 0c114 16 203 66 269 149 51 65 77 133 77 207 0 19-1 28-5 47-17 86-80 139-182 156-35 6-13 5-341 6z"
       id="path1506" />
    <rect
       width="156.4"
       height="140.4"
       x="1479"
       y="127"
       fill="#58d3d7"
       paint-order="markers stroke fill"
       rx="23.8"
       ry="27"
       id="rect1508" />
    <rect
       width="156.4"
       height="531.1"
       x="1480"
       y="275"
       fill="#a0a0a0"
       paint-order="markers stroke fill"
       rx="26.1"
       ry="25.7"
       id="rect1510" />
    <path
       fill="none"
       stroke="#353535"
       stroke-linecap="round"
       stroke-linejoin="round"
       stroke-width="80.3"
       d="m654 1314 97 156 127-161 157 164 192-161"
       id="path1512" />
    <g
       filter="url(#eye_glow)"
       id="g1516">
      <path
         id="left_eye"
         fill="#58d3d7"
         stroke-width="1"
         d="M1231 830a128 128 0 0 0-128 128v64a128 128 0 0 0 128 128 128 128 0 0 0 127-128v-64a128 128 0 0 0-127-128Z"
         filter="url(#b)" />
      <use
         id="right_eye"
         xlink:href="#left_eye"
         width="100%"
         height="100%"
         transform="translate(-575)" />
    </g>
  </g>
  <path
     id="shorts"
     fill="#cbcbcb"
     d="M600 1772v215h333v-136h396v136h329v-215H933Z" />
</svg>
