<?xml version="1.0" encoding="UTF-8" standalone="no"?>
<svg
   xmlns:dc="http://purl.org/dc/elements/1.1/"
   xmlns:cc="http://creativecommons.org/ns#"
   xmlns:rdf="http://www.w3.org/1999/02/22-rdf-syntax-ns#"
   xmlns:svg="http://www.w3.org/2000/svg"
   xmlns="http://www.w3.org/2000/svg"
   xmlns:xlink="http://www.w3.org/1999/xlink"
   xmlns:sodipodi="http://sodipodi.sourceforge.net/DTD/sodipodi-0.dtd"
   xmlns:inkscape="http://www.inkscape.org/namespaces/inkscape"
   viewBox="0 0 2048 2048"
   version="1.1"
   id="svg26"
   sodipodi:docname="neobot_super.svg"
   inkscape:version="1.0.2-2 (e86c870879, 2021-01-15)">
  <metadata
     id="metadata30">
    <rdf:RDF>
      <cc:Work
         rdf:about="">
        <dc:format>image/svg+xml</dc:format>
        <dc:type
           rdf:resource="http://purl.org/dc/dcmitype/StillImage" />
        <dc:title></dc:title>
      </cc:Work>
    </rdf:RDF>
  </metadata>
  <sodipodi:namedview
     pagecolor="#ffffff"
     bordercolor="#666666"
     borderopacity="1"
     objecttolerance="10"
     gridtolerance="10"
     guidetolerance="10"
     inkscape:pageopacity="0"
     inkscape:pageshadow="2"
     inkscape:window-width="1920"
     inkscape:window-height="1001"
     id="namedview28"
     showgrid="false"
     inkscape:snap-smooth-nodes="false"
     inkscape:object-paths="true"
     inkscape:snap-bbox="false"
     inkscape:snap-bbox-midpoints="true"
     inkscape:snap-object-midpoints="true"
     inkscape:zoom="0.50754246"
     inkscape:cx="824.80008"
     inkscape:cy="1340.4582"
     inkscape:window-x="-9"
     inkscape:window-y="-9"
     inkscape:window-maximized="1"
     inkscape:current-layer="layer1" />
  <defs
     id="defs15">
    <filter
       id="eye_glow"
       width="10"
       height="10"
       x="-5"
       y="-5">
      <feGaussianBlur
         in="SourceGraphic"
         result="blur1"
         stdDeviation="50"
         id="feGaussianBlur2" />
      <feGaussianBlur
         in="SourceGraphic"
         result="blur2"
         stdDeviation="25"
         id="feGaussianBlur4" />
      <feGaussianBlur
         in="SourceGraphic"
         result="blur3"
         stdDeviation="12.5 "
         id="feGaussianBlur6" />
      <feComposite
         in="SourceGraphic"
         in2="blur1"
         result="comp1"
         id="feComposite8" />
      <feComposite
         in="comp1"
         in2="blur2"
         result="comp2"
         id="feComposite10" />
      <feComposite
         in="comp2"
         in2="blur3"
         id="feComposite12" />
    </filter>
  </defs>
  <path
     id="body"
     fill="#cbcbcb"
     stroke="none"
     d="m 1046,448 c -137,-1 -272,39 -394,99 a 828,828 0 0 0 -376,381 802,802 0 0 0 -65,358 c 1,122 20,251 93,352 a 501,501 0 0 0 301,206 c 80,18 163,12 244,14 201,1 401,2 602,-1 60,-5 120,-26 170,-60 93,-64 139,-176 159,-283 21,-100 13,-202 14,-304 1,-97 -13,-195 -47,-287 -29,-74 -64,-149 -185,-265 -120,-116 -163,-126 -197,-143 -98,-49 -209,-69 -319,-67 z"
     display="inline"
     paint-order="markers stroke fill"
     style="font-variation-settings:'wght' 400"
     sodipodi:insensitive="true" />
  <path
     id="outline"
     fill="#000000"
     d="m 719,1983 c -138,-6 -259,-43 -354,-105 -56,-38 -99,-78 -142,-136 A 725,725 0 0 1 85,1290 c 0,-197 43,-366 129,-507 37,-62 84,-120 147,-183 a 920,920 0 0 1 600,-276 850,850 0 0 1 368,50 c 2,0 2,-5 2,-106 0,-125 0,-129 8,-154 A 159,159 0 0 1 1464,5 c 12,-2 15,-2 73,-2 l 70,1 a 160,160 0 0 1 133,130 c 3,16 3,35 3,291 v 263 l 9,11 a 803,803 0 0 1 92,162 c 41,97 65,199 73,318 4,60 4,185 0,247 -17,249 -98,415 -245,498 -46,26 -101,44 -161,52 -44,7 -22,6 -338,7 a 282100,282100 0 0 0 -454,0 z m 718,-127 c 158,-13 263,-96 316,-250 24,-68 37,-148 40,-248 1,-36 1,-154 -1,-182 -6,-103 -21,-186 -50,-258 -23,-60 -71,-139 -117,-195 l -10,-11 V 304 l -2,-6 c -3,-7 -11,-15 -18,-18 -6,-2 -7,-2 -60,-2 l -53,1 -5,2 c -7,4 -12,9 -16,16 l -2,7 v 134 l -1,134 -15,-9 c -51,-33 -108,-62 -147,-75 A 782,782 0 0 0 885,468 960,960 0 0 0 582,589 816,816 0 0 0 280,925 c -31,61 -53,146 -61,230 -6,57 -7,145 -3,199 7,88 23,157 50,215 a 573,573 0 0 0 127,165 c 75,66 166,105 272,117 32,4 37,4 175,5 z M 1598,267 c 7,-4 12,-11 15,-18 2,-5 2,-7 2,-49 0,-42 0,-44 -2,-49 -3,-7 -8,-14 -15,-18 l -5,-2 -55,-1 h -54 l -6,3 c -7,3 -13,9 -16,16 l -3,6 v 90 l 2,6 c 4,7 9,13 17,16 l 6,3 h 109 z"
     display="inline"
     sodipodi:insensitive="true" />
  <path
     id="visor"
     fill="#353535"
     d="m 639,1210 -45,-5 c -35,-5 -63,-13 -89,-26 -53,-27 -87,-71 -98,-130 -4,-19 -5,-28 -5,-47 0,-74 26,-142 77,-207 66,-83 156,-133 270,-150 a 1655,1655 0 0 1 378,0 c 114,17 204,67 270,150 51,65 77,133 77,207 0,19 -1,28 -5,47 -17,86 -80,139 -183,156 -35,6 -13,5 -341,6 z"
     display="inline"
     sodipodi:insensitive="true" />
  <rect
     id="light"
     width="156.5"
     height="140.5"
     x="1458"
     y="130"
     fill="#58d3d7"
     paint-order="markers stroke fill"
     rx="23.799999"
     ry="27"
     sodipodi:insensitive="true" />
  <rect
     id="stem"
     width="156.5"
     height="531.5"
     x="1459"
     y="278"
     fill="#a0a0a0"
     paint-order="markers stroke fill"
     rx="26.1"
     ry="25.700001"
     sodipodi:insensitive="true" />
  <g
     id="eyes"
     clip-path="url(#visor)"
     sodipodi:insensitive="true">
    <path
       id="left_eye"
       fill="#58d3d7"
       d="m 1169,734 a 128,128 0 0 0 -128,128 v 64 a 128,128 0 0 0 128,128 128,128 0 0 0 128,-128 V 862 A 128,128 0 0 0 1169,734 Z"
       filter="url(#eye_glow)" />
    <use
       xlink:href="#left_eye"
       id="right_eye"
       width="100%"
       height="100%"
       x="0"
       y="0"
       display="inline"
       transform="translate(-575)" />
  </g>
  <g
     inkscape:groupmode="layer"
     id="layer1"
     inkscape:label="super">
    <path
       id="path872"
       style="fill:#ffff00;fill-opacity:1;stroke:#ff0000;stroke-width:72;stroke-linecap:round;stroke-linejoin:bevel;stroke-miterlimit:4;stroke-dasharray:none;stroke-opacity:1;paint-order:normal"
       inkscape:transform-center-x="3.9793244e-05"
       inkscape:transform-center-y="104.46482"
       d="m 515.68942,1262.3876 c 1.4e-4,30.7076 -15.70922,59.674 -42.51886,78.4004 l 300.91925,469.9878 c 19.05163,-13.3072 139.87146,-20.5227 163.91022,-20.5228 24.03877,10e-5 144.85857,7.2156 163.91017,20.5228 l 300.9192,-469.9897 c -26.809,-18.7259 -42.5183,-47.6916 -42.5188,-78.3985 z"
       sodipodi:nodetypes="cccscccc" />
    <path
       style="fill:#000000;stroke:none;stroke-width:0.439798px;stroke-linecap:butt;stroke-linejoin:miter;stroke-opacity:1"
       d="m 1064.7453,447.17791 c 0,0 -58.8217,3.67631 -12.2545,58.82161 46.5671,55.14526 11.0291,80.87973 -20.8327,100.48693 -31.86166,19.60721 -99.26145,-4.9018 -101.71235,-26.95991 0,0 45.34166,18.38176 73.52705,0 28.1853,-18.38176 51.4689,-34.31261 -52.6944,-85.78152 l -116.4178,-79.6543 193.6212,-42.89076 c 0,0 134.7995,22.05811 134.7995,30.63629 0,8.57811 -98.036,45.34166 -98.036,45.34166 z"
       id="path870"
       inkscape:label="hair curl" />
  </g>
</svg>
