<svg xmlns="http://www.w3.org/2000/svg" id="svg1181" version="1.1" viewBox="0 0 2048 2048">
  <defs id="defs1168">
    <filter id="eye_glow" width="10" height="10" x="-5" y="-5">
      <feGaussianBlur id="feGaussianBlur1038" in="SourceGraphic" result="blur1" stdDeviation="50"/>
      <feGaussianBlur id="feGaussianBlur1040" in="SourceGraphic" result="blur2" stdDeviation="25"/>
      <feGaussianBlur id="feGaussianBlur1042" in="SourceGraphic" result="blur3" stdDeviation="12.5"/>
      <feComposite id="feComposite1044" in="SourceGraphic" in2="blur1" result="comp1"/>
      <feComposite id="feComposite1046" in="comp1" in2="blur2" result="comp2"/>
      <feComposite id="feComposite1048" in="comp2" in2="blur3"/>
    </filter>
  </defs>
  <path id="body" fill="#cbcbcb" stroke="none" d="M1046 448c-137-1-272 39-394 99a828 828 0 0 0-376 381 802 802 0 0 0-65 358c1 122 20 251 93 352a501 501 0 0 0 301 206c80 18 163 12 244 14 201 1 401 2 602-1 60-5 120-26 170-60 93-64 139-176 159-283 21-100 13-202 14-304 1-97-13-195-47-287-29-74-64-149-185-265-120-116-163-126-197-143-98-49-209-69-319-67z"/>
  <path id="outline" fill="#000" d="M719 1983c-138-6-259-43-354-105-56-38-99-78-142-136a725 725 0 0 1-138-452c0-197 43-366 129-507 37-62 84-120 147-183a920 920 0 0 1 600-276 850 850 0 0 1 368 50c2 0 2-5 2-106 0-125 0-129 8-154A159 159 0 0 1 1464 5c12-2 15-2 73-2l70 1a160 160 0 0 1 133 130c3 16 3 35 3 291v263l9 11a803 803 0 0 1 92 162c41 97 65 199 73 318 4 60 4 185 0 247-17 249-98 415-245 498-46 26-101 44-161 52-44 7-22 6-338 7a282100 282100 0 0 0-454 0zm718-127c158-13 263-96 316-250 24-68 37-148 40-248 1-36 1-154-1-182-6-103-21-186-50-258-23-60-71-139-117-195l-10-11V304l-2-6c-3-7-11-15-18-18-6-2-7-2-60-2l-53 1-5 2c-7 4-12 9-16 16l-2 7v134l-1 134-15-9c-51-33-108-62-147-75a782 782 0 0 0-411-20 960 960 0 0 0-303 121 816 816 0 0 0-302 336c-31 61-53 146-61 230-6 57-7 145-3 199 7 88 23 157 50 215a573 573 0 0 0 127 165c75 66 166 105 272 117 32 4 37 4 175 5zm161-1589c7-4 12-11 15-18 2-5 2-7 2-49s0-44-2-49c-3-7-8-14-15-18l-5-2-55-1h-54l-6 3c-7 3-13 9-16 16l-3 6v90l2 6c4 7 9 13 17 16l6 3h109z"/>
  <path id="visor" fill="#353535" d="m639 1210-45-5c-35-5-63-13-89-26-53-27-87-71-98-130-4-19-5-28-5-47 0-74 26-142 77-207 66-83 156-133 270-150a1655 1655 0 0 1 378 0c114 17 204 67 270 150 51 65 77 133 77 207 0 19-1 28-5 47-17 86-80 139-183 156-35 6-13 5-341 6z"/>
  <g id="cat_mask" fill="#56d2d6" filter="url(#eye_glow)">
    <path d="M583.2 1047.7c-6.5-.2-13.3 2.8-37.2 14.7a517.5 517.5 0 0 0-31 16.3 30.4 30.4 0 0 0-7.5 43.2 32 32 0 0 0 20.2 12.3c3 .7 6.7.6 10.8-.3 5.5-1.2 59.5-28.2 64.2-32.2 4-3.3 7.2-8 9-13.2a29 29 0 0 0-7.4-31.5 29 29 0 0 0-16.5-8.7l-4.6-.6z"/>
    <path d="M1242.3 1047.7c-1.6 0-3.1.3-5 .6a30.8 30.8 0 0 0-25.1 25.2 30.4 30.4 0 0 0 13.4 30.5c7.4 4.8 107.2 54.2 111.5 55.2 4.9 1 11.4.6 16.7-1.1a33 33 0 0 0 19-18.8c3.6-9.7.6-23.7-6.8-31.6-3-3.1-11.7-7.7-60.7-32.2-47-23.4-56-28-63-27.8z"/>
    <path d="M861.2 971.7c-4.5.1-9.1 1.4-13.6 3.8-8.6 4.6-7.2 2.6-38.9 55.6a1457.8 1457.8 0 0 1-23 37.8c-.2 0-11.6-18.8-25.3-41.8-26.6-44.4-29.5-48.6-37.4-52.3a30.9 30.9 0 0 0-43.5 22.7 29 29 0 0 0 3 18.7c1 2.2 19 32.4 39.7 67 40.2 67 42 69.7 50.2 73.6a32 32 0 0 0 24.4 1c3.4-1.2 8.4-4.4 10.7-6.8 2.3-2.3 7-9.9 30.6-49.1a7368 7368 0 0 1 26.6-44.3c.9-1.3 5 3.5 39.1 46.2 26 32.5 39.4 48.5 41.8 50.2 6 4.2 10.2 5.6 17.3 5.6 7.2 0 12.3-1.5 17.9-5.2 5-3.4 129.4-127.6 133.5-133.4a30.6 30.6 0 0 0-41.6-43.8c-2 1.3-26.7 25.6-55 53.8a4544 4544 0 0 1-52 51.4c-.3 0-19-23-41.6-51.4-35.4-44.1-41.8-51.8-45.5-54.2a30.3 30.3 0 0 0-17.4-5z"/>
    <path d="M531.7 920.9c-1.5 0-3 .3-4.6.6a30.4 30.4 0 0 0-11.7 55.6c7 4.7 56.4 29 60.7 29.9 4.9 1 11.4.6 16.7-1.1a33 33 0 0 0 19-18.8c3.6-9.7.6-23.7-6.8-31.6-2.8-3-10-7-35.4-19.6-24.6-12.2-31.4-15.2-37.9-15z"/>
    <path d="M1343.9 895.5c-7-.2-16 4.3-62.3 27.4a1521.7 1521.7 0 0 0-56.3 29 30.4 30.4 0 0 0-7.5 43.1 32 32 0 0 0 20.2 12.4c3 .7 6.7.5 10.8-.4a914 914 0 0 0 58-27.8c51-25.4 54.2-27.1 58.4-31.4a29.4 29.4 0 0 0 0-43c-5-5-9.3-7.3-16.4-8.7-1.8-.3-3.3-.6-5-.6z"/>
    <path d="M1089.7 685.4a80 80 0 0 0-12.2.6 98.1 98.1 0 0 0-34 12.6 100.3 100.3 0 0 0-28.9 28.8 99.4 99.4 0 0 0-12.4 33.2c-1 6.8-1 71 0 77.7a91 91 0 0 0 72.4 74.1c9 1.6 24 1.5 33-.4 34.8-7 62.7-35 69.8-69.9 1.4-6.9 1.5-11 1.5-42.7 0-31.9-.1-35.7-1.6-42.8a90.5 90.5 0 0 0-66.3-69c-4.9-1.3-13.5-2.1-21.3-2.2z"/>
    <path d="M734.6 685.4a80 80 0 0 0-12.3.6 98.1 98.1 0 0 0-34 12.6 100.3 100.3 0 0 0-28.8 28.8 99.4 99.4 0 0 0-12.4 33.2c-1.1 6.8-1.1 71 0 77.7a91 91 0 0 0 72.3 74.1c9 1.6 24 1.5 33-.4a90 90 0 0 0 69.8-69.9c1.5-6.9 1.6-11 1.6-42.7 0-31.9-.1-35.7-1.6-42.8a90.5 90.5 0 0 0-66.3-69c-4.9-1.3-13.5-2.1-21.3-2.2z"/>
  </g>
  <rect id="light" width="156.5" height="140.5" x="1458" y="130" fill="#58d3d7" display="inline" paint-order="markers stroke fill" rx="23.8" ry="27"/>
  <rect id="stem" width="156.5" height="531.5" x="1459" y="278" fill="#a0a0a0" display="inline" paint-order="markers stroke fill" rx="26.1" ry="25.7"/>
  <path id="mouth" fill="none" stroke="#353535" stroke-linecap="round" stroke-linejoin="round" stroke-width="80.4" d="m632 1318 97 156 127-161 157 164 192-161" display="inline"/>
</svg>