<svg xmlns="http://www.w3.org/2000/svg" xmlns:xlink="http://www.w3.org/1999/xlink" version="1.1" viewBox="0 0 2048 2048">
  <defs>
    <filter id="eye_glow" width="10" height="10" x="-5" y="-5">
      <feGaussianBlur in="SourceGraphic" result="blur1" stdDeviation="50"/>
      <feGaussianBlur in="SourceGraphic" result="blur2" stdDeviation="25"/>
      <feGaussianBlur in="SourceGraphic" result="blur3" stdDeviation="12.5"/>
      <feComposite in="SourceGraphic" in2="blur1" result="comp1"/>
      <feComposite in="comp1" in2="blur2" result="comp2"/>
      <feComposite in="comp2" in2="blur3"/>
    </filter>
  </defs>
   <g id="neobot">
      <rect id="antenna_outline" width="115.6" height="392.7" x="1353" y="590" fill="#000" stroke="#000" stroke-width="180" rx="19.3" ry="19"/>
      <path id="body" fill="#cbcbcb" stroke="#000" stroke-linejoin="round" stroke-width="240" d="M1049 824c-102 0-201 29-291 74a612 612 0 0 0-278 281 593 593 0 0 0-48 265c0 90 14 185 68 260a370 370 0 0 0 223 152c59 14 120 9 180 11 149 0 297 1 445-1 44-4 89-19 126-45 68-47 102-130 117-209 16-74 10-149 11-224 0-72-10-144-35-212-22-55-47-111-137-196-89-86-120-93-145-106-73-36-155-51-236-50z" paint-order="markers stroke fill"/>
      <path id="visor" fill="#353535" stroke-width=".7" d="m748 1388-33-4c-26-4-47-10-66-19-39-20-64-53-73-96-2-14-3-21-3-35 0-55 19-105 57-153 48-61 115-98 199-111a1223 1223 0 0 1 280 0c84 13 150 50 199 111 38 48 57 98 57 153 0 14-1 21-4 35-12 63-59 102-135 115-26 4-9 4-252 4z" display="inline"/>
      <rect id="light" width="115.7" height="103.8" x="1353" y="590" fill="#58d3d7" stroke-width=".7" paint-order="markers stroke fill" rx="17.6" ry="20"/>
      <rect id="stem" width="115.7" height="392.8" x="1354" y="699" fill="#a0a0a0" stroke-width=".7" paint-order="markers stroke fill" rx="19.3" ry="19"/>
      <path id="mouth" fill="none" stroke="#353535" stroke-linecap="round" stroke-linejoin="round" stroke-width="59.4" d="m743 1467 71 116 94-119 116 121 142-119"/>
      <g id="eyes" clip-path="url(#visor)" display="inline" transform="translate(276 493) scale(.73905)">
         <path id="left_eye" fill="#58d3d7" d="M1209 834a128 128 0 0 0-128 128v64a128 128 0 0 0 128 128 128 128 0 0 0 128-128v-64a128 128 0 0 0-128-128Z" filter="url(#eye_glow)"/>
         <use xlink:href="#left_eye" id="right_eye" width="100%" height="100%" x="0" y="0" display="inline" transform="translate(-575)"/>
      </g>
  </g>
</svg>
