<svg xmlns="http://www.w3.org/2000/svg" xmlns:xlink="http://www.w3.org/1999/xlink" version="1.1" viewBox="0 0 2048 2048">
  <defs>
    <filter id="eye_glow" width="3" height="3" x="-1" y="-1">
      <feGaussianBlur in="SourceGraphic" result="blur1" stdDeviation="50"/>
      <feGaussianBlur in="SourceGraphic" result="blur2" stdDeviation="25"/>
      <feGaussianBlur in="SourceGraphic" result="blur3" stdDeviation="12.5"/>
      <feComposite in="SourceGraphic" in2="blur1" result="comp1"/>
      <feComposite in="comp1" in2="blur2" result="comp2"/>
      <feComposite in="comp2" in2="blur3"/>
    </filter>
  </defs>
  <g id="neobot" transform="translate(325)">
    <rect id="antenna_outline" width="115.6" height="392.7" x="1353" y="590" fill="#000" stroke="#000" stroke-width="180" rx="19.3" ry="19"/>
    <path id="body" fill="#cbcbcb" stroke="#000" stroke-linejoin="round" stroke-width="240" d="M1049 824c-102 0-201 29-291 74a612 612 0 0 0-278 281 593 593 0 0 0-48 265c0 90 14 185 68 260a370 370 0 0 0 223 152c59 14 120 9 180 11 149 0 297 1 445-1 44-4 89-19 126-45 68-47 102-130 117-209 16-74 10-149 11-224 0-72-10-144-35-212-22-55-47-111-137-196-89-86-120-93-145-106-73-36-155-51-236-50z" paint-order="markers stroke fill"/>
    <path id="visor" fill="#353535" stroke-width=".7" d="m748 1388-33-4c-26-4-47-10-66-19-39-20-64-53-73-96-2-14-3-21-3-35 0-55 19-105 57-153 48-61 115-98 199-111a1223 1223 0 0 1 280 0c84 13 150 50 199 111 38 48 57 98 57 153 0 14-1 21-4 35-12 63-59 102-135 115-26 4-9 4-252 4z" display="inline"/>
    <rect id="light" width="115.7" height="103.8" x="1353" y="590" fill="#58d3d7" stroke-width=".7" paint-order="markers stroke fill" rx="17.6" ry="20"/>
    <rect id="stem" width="115.7" height="392.8" x="1354" y="699" fill="#a0a0a0" stroke-width=".7" paint-order="markers stroke fill" rx="19.3" ry="19"/>
    <g id="eyes" filter="url(#eye_glow)" transform="translate(276 493) scale(.73905)">
      <path id="left_eye" fill="none" stroke="#58d3d7" stroke-linecap="round" stroke-linejoin="round" stroke-width="100" d="M1080 1048a153 153 0 0 1 148-114 153 153 0 0 1 148 114"/>
      <use id="right_eye" xlink:href="left_eye" width="100%" height="100%" x="0" y="0" transform="matrix(.86886 0 0 1 -433 0)"/>
    </g>
  </g>
  <g id="neobot_back" display="inline" transform="matrix(-1 0 0 1 1723 0)">
    <use xlink:href="#antenna_outline" id="back_antenna_outline" width="100%" height="100%" x="0" y="0"/>
    <use xlink:href="#light" id="back_light" width="100%" height="100%" x="0" y="0" display="inline"/>
    <use xlink:href="#body" id="back_body" width="100%" height="100%" x="0" y="0" display="inline"/>
    <path id="back_stem" fill="#a0a0a0" fill-opacity="1" d="M742 699c-11 0-20 8-20 19v302l9-9a790 790 0 0 1 88-82l19-15V718c0-11-9-19-19-19z" transform="matrix(-1 0 0 1 2192 0)"/>
  </g>
  <path id="heart" fill="#58d3d7" stroke="#000" stroke-linecap="butt" stroke-linejoin="round" stroke-width="241.1" d="M868 225a132 132 0 0 0-94 227l91 90 65 65 65 65c16 16 42 16 58 0l65-65 61-61 95-95a132 132 0 1 0-188-187l-62 62-62-62c-26-26-60-39-94-39z" paint-order="stroke markers fill"/>
</svg>
